<svg preserveAspectRatio="none" width="100%" height="100%" overflow="visible" style="display: block;" viewBox="0 0 20.9142 21.9142" fill="none" xmlns="http://www.w3.org/2000/svg">
<g id="Icon">
<path fill-rule="evenodd" clip-rule="evenodd" d="M15.9142 2.08579L19.8284 6L3.91421 21.9142L0 18L15.9142 2.08579ZM13.5784 7.25L14.6642 8.33579L17 6L15.9142 4.91421L13.5784 7.25ZM13.25 9.75L12.1642 8.66421L2.82843 18L3.91421 19.0858L13.25 9.75Z" fill="var(--fill-0, black)"/>
<path d="M7.91421 2L8.91421 0L9.91421 2L11.9142 3L9.91421 4L8.91421 6L7.91421 4L5.91421 3L7.91421 2Z" fill="var(--fill-0, black)"/>
<path d="M16.9142 13L17.9142 11L18.9142 13L20.9142 14L18.9142 15L17.9142 17L16.9142 15L14.9142 14L16.9142 13Z" fill="var(--fill-0, black)"/>
<path d="M2.91421 7L3.91421 5L4.91421 7L6.91421 8L4.91421 9L3.91421 11L2.91421 9L0.914214 8L2.91421 7Z" fill="var(--fill-0, black)"/>
</g>
</svg>
