<svg preserveAspectRatio="none" width="100%" height="100%" overflow="visible" style="display: block;" viewBox="0 0 16 20" fill="none" xmlns="http://www.w3.org/2000/svg">
<path id="Icon" d="M1 8V7H0V8H1ZM15 8H16V7H15V8ZM15 19V20H16V19H15ZM1 19H0V20H1V19ZM11 8C11 8.55228 11.4477 9 12 9C12.5523 9 13 8.55228 13 8H12H11ZM3 8C3 8.55228 3.44772 9 4 9C4.55228 9 5 8.55228 5 8H4H3ZM9 12V11H7V12H8H9ZM7 15V16H9V15H8H7ZM1 8V9H15V8V7H1V8ZM15 8H14V19H15H16V8H15ZM15 19V18H1V19V20H15V19ZM1 19H2V8H1H0V19H1ZM12 5H11V8H12H13V5H12ZM4 8H5V5H4H3V8H4ZM8 1V2C9.65685 2 11 3.34315 11 5H12H13C13 2.23858 10.7614 0 8 0V1ZM8 1V0C5.23858 0 3 2.23858 3 5H4H5C5 3.34315 6.34315 2 8 2V1ZM8 12H7V15H8H9V12H8Z" fill="var(--stroke-0, black)"/>
</svg>
