<svg preserveAspectRatio="none" width="100%" height="100%" overflow="visible" style="display: block;" viewBox="0 0 398.007 551" fill="none" xmlns="http://www.w3.org/2000/svg">
<path id="Union" d="M257.084 7.68663C300.904 -6.82304 311.235 1.61351 305.694 13.211C299.339 26.5111 290.018 39.339 257.084 61.9825C233.844 77.9607 225.568 66.773 215.988 92.0294C210.012 107.786 215.423 124.631 220.085 132.092C335.524 141.806 398.007 231.678 398.007 341.11C398.007 457.029 350.977 551 199.003 551C52.6901 551 0 457.029 0 341.11C0.000222508 226.897 86.4946 133.991 194.166 131.282C196.997 128.449 199.355 123.81 199.536 116.529C199.979 98.7593 200.623 88.2155 181.588 82.8849C162.553 77.5542 133.884 67.3884 117.199 38.3399C109.544 25.0126 114.85 16.8993 122.366 16.2599C133.581 15.3055 156.56 15.3751 174.621 25.8399C197.197 38.921 207.504 56.5552 210.16 79.212C211.931 62.3299 231.667 16.1027 257.084 7.68663Z" fill="var(--fill-0, #D9D9D9)"/>
</svg>
